<svg width="236" height="36" viewBox="0 0 236 36" fill="none" xmlns="http://www.w3.org/2000/svg">
<g filter="url(#filter0_d)">
<path d="M17.9523 17.3164C17.8195 19.1523 17.1398 20.5977 15.9133 21.6523C14.6945 22.707 13.0852 23.2344 11.0852 23.2344C8.89766 23.2344 7.175 22.5 5.91719 21.0312C4.66719 19.5547 4.04219 17.5312 4.04219 14.9609V13.918C4.04219 12.2773 4.33125 10.832 4.90938 9.58203C5.4875 8.33203 6.31172 7.375 7.38203 6.71094C8.46016 6.03906 9.71016 5.70312 11.132 5.70312C13.1008 5.70312 14.6867 6.23047 15.8898 7.28516C17.093 8.33984 17.7883 9.82031 17.9758 11.7266H14.4602C14.3742 10.625 14.0656 9.82812 13.5344 9.33594C13.0109 8.83594 12.2102 8.58594 11.132 8.58594C9.96016 8.58594 9.08125 9.00781 8.49532 9.85156C7.91719 10.6875 7.62032 11.9883 7.60469 13.7539V15.043C7.60469 16.8867 7.88203 18.2344 8.43672 19.0859C8.99922 19.9375 9.88203 20.3633 11.0852 20.3633C12.1711 20.3633 12.9797 20.1172 13.5109 19.625C14.05 19.125 14.3586 18.3555 14.4367 17.3164H17.9523ZM26.7109 16.543C26.7109 15.2852 26.9531 14.1641 27.4375 13.1797C27.9219 12.1953 28.6172 11.4336 29.5234 10.8945C30.4375 10.3555 31.4961 10.0859 32.6992 10.0859C34.4102 10.0859 35.8047 10.6094 36.8828 11.6562C37.9688 12.7031 38.5742 14.125 38.6992 15.9219L38.7227 16.7891C38.7227 18.7344 38.1797 20.2969 37.0938 21.4766C36.0078 22.6484 34.5508 23.2344 32.7227 23.2344C30.8945 23.2344 29.4336 22.6484 28.3398 21.4766C27.2539 20.3047 26.7109 18.7109 26.7109 16.6953V16.543ZM30.0977 16.7891C30.0977 17.9922 30.3242 18.9141 30.7773 19.5547C31.2305 20.1875 31.8789 20.5039 32.7227 20.5039C33.543 20.5039 34.1836 20.1914 34.6445 19.5664C35.1055 18.9336 35.3359 17.9258 35.3359 16.543C35.3359 15.3633 35.1055 14.4492 34.6445 13.8008C34.1836 13.1523 33.5352 12.8281 32.6992 12.8281C31.8711 12.8281 31.2305 13.1523 30.7773 13.8008C30.3242 14.4414 30.0977 15.4375 30.0977 16.7891ZM47.4813 16.5664C47.4813 14.5898 47.9227 13.0156 48.8055 11.8438C49.6961 10.6719 50.9109 10.0859 52.45 10.0859C53.6844 10.0859 54.7039 10.5469 55.5086 11.4688V5H58.907V23H55.8484L55.6844 21.6523C54.8406 22.707 53.7547 23.2344 52.4266 23.2344C50.9344 23.2344 49.7352 22.6484 48.8289 21.4766C47.9305 20.2969 47.4813 18.6602 47.4813 16.5664ZM50.868 16.8125C50.868 18 51.075 18.9102 51.4891 19.543C51.9031 20.1758 52.5047 20.4922 53.2938 20.4922C54.3406 20.4922 55.0789 20.0508 55.5086 19.168V14.1641C55.0867 13.2812 54.3563 12.8398 53.3172 12.8398C51.6844 12.8398 50.868 14.1641 50.868 16.8125ZM72.3063 23H68.9078V10.3203H72.3063V23ZM68.7086 7.03906C68.7086 6.53125 68.8766 6.11328 69.2125 5.78516C69.5563 5.45703 70.0211 5.29297 70.607 5.29297C71.1852 5.29297 71.6461 5.45703 71.9898 5.78516C72.3336 6.11328 72.5055 6.53125 72.5055 7.03906C72.5055 7.55469 72.3297 7.97656 71.9781 8.30469C71.6344 8.63281 71.1773 8.79688 70.607 8.79688C70.0367 8.79688 69.5758 8.63281 69.2242 8.30469C68.8805 7.97656 68.7086 7.55469 68.7086 7.03906ZM85.4242 10.3203L85.5297 11.7852C86.4359 10.6523 87.6508 10.0859 89.1742 10.0859C90.518 10.0859 91.518 10.4805 92.1742 11.2695C92.8305 12.0586 93.1664 13.2383 93.182 14.8086V23H89.7953V14.8906C89.7953 14.1719 89.6391 13.6523 89.3266 13.332C89.0141 13.0039 88.4945 12.8398 87.768 12.8398C86.8148 12.8398 86.1 13.2461 85.6234 14.0586V23H82.2367V10.3203H85.4242ZM102.468 16.5664C102.468 14.6211 102.929 13.0547 103.851 11.8672C104.78 10.6797 106.03 10.0859 107.601 10.0859C108.991 10.0859 110.073 10.5625 110.847 11.5156L110.988 10.3203H114.058V22.5781C114.058 23.6875 113.804 24.6523 113.296 25.4727C112.796 26.293 112.089 26.918 111.175 27.3477C110.261 27.7773 109.191 27.9922 107.964 27.9922C107.034 27.9922 106.128 27.8047 105.245 27.4297C104.363 27.0625 103.695 26.5859 103.241 26L104.741 23.9375C105.585 24.8828 106.609 25.3555 107.812 25.3555C108.71 25.3555 109.409 25.1133 109.909 24.6289C110.409 24.1523 110.659 23.4727 110.659 22.5898V21.9102C109.878 22.793 108.851 23.2344 107.577 23.2344C106.054 23.2344 104.82 22.6406 103.874 21.4531C102.937 20.2578 102.468 18.6758 102.468 16.707V16.5664ZM105.855 16.8125C105.855 17.9609 106.085 18.8633 106.546 19.5195C107.007 20.168 107.64 20.4922 108.445 20.4922C109.476 20.4922 110.214 20.1055 110.659 19.332V14C110.206 13.2266 109.476 12.8398 108.468 12.8398C107.655 12.8398 107.015 13.1719 106.546 13.8359C106.085 14.5 105.855 15.4922 105.855 16.8125Z" fill="#222222"/>
<path d="M133.727 19.4844H127.562L126.391 23H122.652L129.004 5.9375H132.262L138.648 23H134.91L133.727 19.4844ZM128.512 16.6367H132.777L130.633 10.25L128.512 16.6367ZM146.692 16.5664C146.692 14.5898 147.134 13.0156 148.016 11.8438C148.907 10.6719 150.122 10.0859 151.661 10.0859C152.895 10.0859 153.915 10.5469 154.72 11.4688V5H158.118V23H155.059L154.895 21.6523C154.052 22.707 152.966 23.2344 151.637 23.2344C150.145 23.2344 148.946 22.6484 148.04 21.4766C147.141 20.2969 146.692 18.6602 146.692 16.5664ZM150.079 16.8125C150.079 18 150.286 18.9102 150.7 19.543C151.114 20.1758 151.716 20.4922 152.505 20.4922C153.552 20.4922 154.29 20.0508 154.72 19.168V14.1641C154.298 13.2812 153.567 12.8398 152.528 12.8398C150.895 12.8398 150.079 14.1641 150.079 16.8125ZM167.416 16.5664C167.416 14.5898 167.857 13.0156 168.74 11.8438C169.63 10.6719 170.845 10.0859 172.384 10.0859C173.619 10.0859 174.638 10.5469 175.443 11.4688V5H178.841V23H175.783L175.619 21.6523C174.775 22.707 173.689 23.2344 172.361 23.2344C170.869 23.2344 169.67 22.6484 168.763 21.4766C167.865 20.2969 167.416 18.6602 167.416 16.5664ZM170.802 16.8125C170.802 18 171.009 18.9102 171.423 19.543C171.838 20.1758 172.439 20.4922 173.228 20.4922C174.275 20.4922 175.013 20.0508 175.443 19.168V14.1641C175.021 13.2812 174.291 12.8398 173.252 12.8398C171.619 12.8398 170.802 14.1641 170.802 16.8125ZM192.241 23H188.842V10.3203H192.241V23ZM188.643 7.03906C188.643 6.53125 188.811 6.11328 189.147 5.78516C189.491 5.45703 189.955 5.29297 190.541 5.29297C191.12 5.29297 191.58 5.45703 191.924 5.78516C192.268 6.11328 192.44 6.53125 192.44 7.03906C192.44 7.55469 192.264 7.97656 191.913 8.30469C191.569 8.63281 191.112 8.79688 190.541 8.79688C189.971 8.79688 189.51 8.63281 189.159 8.30469C188.815 7.97656 188.643 7.55469 188.643 7.03906ZM207.515 20.5039C208.14 20.5039 208.648 20.332 209.038 19.9883C209.429 19.6445 209.632 19.1875 209.648 18.6172H212.823C212.816 19.4766 212.581 20.2656 212.12 20.9844C211.659 21.6953 211.027 22.25 210.222 22.6484C209.425 23.0391 208.542 23.2344 207.573 23.2344C205.761 23.2344 204.331 22.6602 203.284 21.5117C202.238 20.3555 201.714 18.7617 201.714 16.7305V16.5078C201.714 14.5547 202.234 12.9961 203.273 11.832C204.312 10.668 205.738 10.0859 207.55 10.0859C209.136 10.0859 210.405 10.5391 211.359 11.4453C212.32 12.3438 212.808 13.543 212.823 15.043H209.648C209.632 14.3867 209.429 13.8555 209.038 13.4492C208.648 13.0352 208.132 12.8281 207.491 12.8281C206.702 12.8281 206.105 13.1172 205.698 13.6953C205.3 14.2656 205.101 15.1953 205.101 16.4844V16.8359C205.101 18.1406 205.3 19.0781 205.698 19.6484C206.097 20.2188 206.702 20.5039 207.515 20.5039ZM226.012 7.20312V10.3203H228.18V12.8047H226.012V19.1328C226.012 19.6016 226.102 19.9375 226.281 20.1406C226.461 20.3438 226.805 20.4453 227.312 20.4453C227.688 20.4453 228.02 20.418 228.309 20.3633V22.9297C227.645 23.1328 226.961 23.2344 226.258 23.2344C223.883 23.2344 222.672 22.0352 222.625 19.6367V12.8047H220.773V10.3203H222.625V7.20312H226.012Z" fill="#49A6E9"/>
</g>
<defs>
<filter id="filter0_d" x="0.0421906" y="5" width="232.266" height="30.9922" filterUnits="userSpaceOnUse" color-interpolation-filters="sRGB">
<feFlood flood-opacity="0" result="BackgroundImageFix"/>
<feColorMatrix in="SourceAlpha" type="matrix" values="0 0 0 0 0 0 0 0 0 0 0 0 0 0 0 0 0 0 127 0"/>
<feOffset dy="4"/>
<feGaussianBlur stdDeviation="2"/>
<feColorMatrix type="matrix" values="0 0 0 0 0 0 0 0 0 0 0 0 0 0 0 0 0 0 0.25 0"/>
<feBlend mode="normal" in2="BackgroundImageFix" result="effect1_dropShadow"/>
<feBlend mode="normal" in="SourceGraphic" in2="effect1_dropShadow" result="shape"/>
</filter>
</defs>
</svg>
